<!-- Generated by IcoMoon.io -->
<svg version="1.1" fill="#b51500" xmlns="http://www.w3.org/2000/svg" width="768" height="768" viewBox="0 0 768 768">
<title></title>
<g id="icomoon-ignore">
</g>
<path d="M542.432 352c-6.848-86.080-35.264-171.296-85.568-246.72 50.24 13.088 95.136 39.424 130.784 75.072 45.056 45.056 75.232 104.896 82.592 171.648zM456.928 662.688c47.456-71.232 77.984-155.296 85.408-246.688h127.904c-7.36 66.752-37.536 126.592-82.592 171.648-35.616 35.616-80.512 61.952-130.72 75.040zM225.568 416c6.848 86.080 35.264 171.296 85.568 246.72-50.24-13.088-95.136-39.424-130.784-75.072-45.056-45.056-75.232-104.896-82.592-171.648zM311.072 105.312c-47.424 71.232-77.952 155.296-85.408 246.688h-127.904c7.36-66.752 37.536-126.592 82.592-171.648 35.648-35.616 80.512-61.952 130.72-75.040zM384.128 32c0 0 0 0 0 0-97.408 0.032-185.408 39.456-249.024 103.104-63.68 63.648-103.104 151.712-103.104 248.896s39.424 185.248 103.104 248.896c63.616 63.648 151.616 103.072 248.768 103.104 0 0 0 0 0 0 97.408-0.032 185.376-39.456 249.024-103.104 63.68-63.648 103.104-151.712 103.104-248.896s-39.424-185.248-103.104-248.896c-63.616-63.648-151.616-103.072-248.768-103.104zM478.272 416c-8.064 89.216-42.112 171.52-94.24 238.432-55.328-71.072-86.592-154.176-94.24-238.432zM383.968 113.568c55.328 71.072 86.592 154.176 94.24 238.432h-188.48c8.064-89.216 42.112-171.52 94.24-238.432z"></path>
</svg>
