<!-- Generated by IcoMoon.io -->
<svg version="1.1" fill="#b51500" xmlns="http://www.w3.org/2000/svg" width="768" height="768" viewBox="0 0 768 768">
<title></title>
<g id="icomoon-ignore">
</g>
<path d="M544 224h114.752l-226.752 226.752-137.376-137.376c-12.512-12.512-32.768-12.512-45.248 0l-240 240c-12.512 12.512-12.512 32.768 0 45.248s32.768 12.512 45.248 0l217.376-217.376 137.376 137.376c12.512 12.512 32.768 12.512 45.248 0l249.376-249.376v114.752c0 17.664 14.336 32 32 32s32-14.336 32-32v-192c0-4.352-0.864-8.48-2.432-12.256s-3.872-7.296-6.912-10.336c-0.032-0.032-0.032-0.032-0.064-0.064-2.944-2.944-6.464-5.312-10.336-6.912-3.776-1.568-7.904-2.432-12.256-2.432h-192c-17.664 0-32 14.336-32 32s14.336 32 32 32z"></path>
</svg>
