<!-- Generated by IcoMoon.io -->
<svg version="1.1" fill="#b51500" xmlns="http://www.w3.org/2000/svg" width="768" height="768" viewBox="0 0 768 768">
<title></title>
<g id="icomoon-ignore">
</g>
<path d="M480 480h-416v-352h416v128zM544 288h82.752l77.248 77.248v114.752h-160zM224 592c0 13.248-5.344 25.216-14.048 33.952s-20.704 14.048-33.952 14.048-25.216-5.344-33.952-14.048-14.048-20.704-14.048-33.952 5.344-25.216 14.048-33.952 20.704-14.048 33.952-14.048 25.216 5.344 33.952 14.048 14.048 20.704 14.048 33.952zM704 592c0-17.184-3.872-33.44-10.784-48h42.784c17.664 0 32-14.336 32-32v-160c0-8.192-3.136-16.384-9.376-22.624l-96-96c-5.792-5.792-13.792-9.376-22.624-9.376h-96v-128c0-17.664-14.336-32-32-32h-480c-17.664 0-32 14.336-32 32v416c0 17.664 14.336 32 32 32h42.784c-6.912 14.56-10.784 30.816-10.784 48 0 30.912 12.576 58.976 32.8 79.2s48.288 32.8 79.2 32.8 58.976-12.576 79.2-32.8 32.8-48.288 32.8-79.2c0-17.184-3.872-33.44-10.784-48h213.568c-6.912 14.56-10.784 30.816-10.784 48 0 30.912 12.576 58.976 32.8 79.2s48.288 32.8 79.2 32.8 58.976-12.576 79.2-32.8 32.8-48.288 32.8-79.2zM640 592c0 13.248-5.344 25.216-14.048 33.952s-20.704 14.048-33.952 14.048-25.216-5.344-33.952-14.048-14.048-20.704-14.048-33.952 5.344-25.216 14.048-33.952 20.704-14.048 33.952-14.048 25.216 5.344 33.952 14.048 14.048 20.704 14.048 33.952z"></path>
</svg>
