<svg width="716" height="410" viewBox="0 0 716 410" fill="none" xmlns="http://www.w3.org/2000/svg">
<path d="M354.597 265.456L350.133 255.808H360.789C363.573 261.856 365.925 267.088 367.845 271.504C369.765 275.824 371.397 279.616 372.741 282.88C374.085 286.048 375.189 288.736 376.053 290.944C376.917 293.152 377.637 295.024 378.213 296.56C378.789 293.68 379.461 291.088 380.229 288.784C381.093 286.384 382.149 283.744 383.397 280.864C384.645 277.888 386.133 274.48 387.861 270.64C389.685 266.704 391.845 261.76 394.341 255.808H406.725L378.213 319.6C376.485 316.048 374.853 312.544 373.317 309.088C371.877 305.536 370.437 302.032 368.997 298.576C367.653 295.12 366.213 291.664 364.677 288.208C363.237 284.752 361.653 281.2 359.925 277.552L341.637 319.6L314.421 255.808H326.805C329.301 261.76 331.365 266.704 332.997 270.64C334.629 274.576 335.973 277.984 337.029 280.864C338.181 283.744 339.093 286.384 339.765 288.784C340.437 291.088 341.061 293.68 341.637 296.56C342.021 295.408 342.453 294.112 342.933 292.672C343.509 291.232 344.229 289.408 345.093 287.2C346.053 284.896 347.301 282.016 348.837 278.56C350.373 275.104 352.293 270.736 354.597 265.456ZM465.132 308.944C462.252 311.536 458.748 313.6 454.62 315.136C450.492 316.672 446.268 317.44 441.948 317.44C437.532 317.44 433.356 316.624 429.42 314.992C425.58 313.264 422.22 311.008 419.34 308.224C416.46 305.344 414.156 301.984 412.428 298.144C410.796 294.304 409.98 290.224 409.98 285.904C409.98 281.584 410.796 277.504 412.428 273.664C414.156 269.824 416.46 266.464 419.34 263.584C422.22 260.704 425.532 258.448 429.276 256.816C433.116 255.088 437.196 254.224 441.516 254.224C448.332 254.224 454.236 256.288 459.228 260.416C464.316 264.448 467.964 269.776 470.172 276.4C467.196 277.456 463.788 278.752 459.948 280.288C456.108 281.824 452.124 283.456 447.996 285.184C443.868 286.816 439.74 288.448 435.612 290.08C431.484 291.712 427.644 293.2 424.092 294.544C425.724 297.808 428.076 300.448 431.148 302.464C434.316 304.384 437.82 305.344 441.66 305.344C444.252 305.344 446.844 304.864 449.436 303.904C452.124 302.944 454.284 301.648 455.916 300.016L465.132 308.944ZM454.764 273.52C453.612 271.12 451.788 269.344 449.292 268.192C446.796 266.944 444.252 266.32 441.66 266.32C438.876 266.32 436.284 266.848 433.884 267.904C431.58 268.96 429.564 270.4 427.836 272.224C426.108 273.952 424.716 275.968 423.66 278.272C422.7 280.576 422.22 282.928 422.22 285.328C422.22 285.808 422.22 286.144 422.22 286.336C422.316 286.528 422.364 286.672 422.364 286.768C424.86 285.808 427.548 284.752 430.428 283.6C433.404 282.352 436.332 281.152 439.212 280C442.092 278.752 444.876 277.6 447.564 276.544C450.252 275.392 452.652 274.384 454.764 273.52Z" fill="#F2F2F2"/>
<path d="M631.35 308.944C628.47 311.536 624.966 313.6 620.838 315.136C616.71 316.672 612.486 317.44 608.166 317.44C603.75 317.44 599.574 316.624 595.638 314.992C591.798 313.264 588.438 311.008 585.558 308.224C582.678 305.344 580.374 301.984 578.646 298.144C577.014 294.304 576.198 290.224 576.198 285.904C576.198 281.584 577.014 277.504 578.646 273.664C580.374 269.824 582.678 266.464 585.558 263.584C588.438 260.704 591.75 258.448 595.494 256.816C599.334 255.088 603.414 254.224 607.734 254.224C614.55 254.224 620.454 256.288 625.446 260.416C630.534 264.448 634.182 269.776 636.39 276.4C633.414 277.456 630.006 278.752 626.166 280.288C622.326 281.824 618.342 283.456 614.214 285.184C610.086 286.816 605.958 288.448 601.83 290.08C597.702 291.712 593.862 293.2 590.31 294.544C591.942 297.808 594.294 300.448 597.366 302.464C600.534 304.384 604.038 305.344 607.878 305.344C610.47 305.344 613.062 304.864 615.654 303.904C618.342 302.944 620.502 301.648 622.134 300.016L631.35 308.944ZM620.982 273.52C619.83 271.12 618.006 269.344 615.51 268.192C613.014 266.944 610.47 266.32 607.878 266.32C605.094 266.32 602.502 266.848 600.102 267.904C597.798 268.96 595.782 270.4 594.054 272.224C592.326 273.952 590.934 275.968 589.878 278.272C588.918 280.576 588.438 282.928 588.438 285.328C588.438 285.808 588.438 286.144 588.438 286.336C588.534 286.528 588.582 286.672 588.582 286.768C591.078 285.808 593.766 284.752 596.646 283.6C599.622 282.352 602.55 281.152 605.43 280C608.31 278.752 611.094 277.6 613.782 276.544C616.47 275.392 618.87 274.384 620.982 273.52ZM642.855 286.48C642.855 282.064 643.671 277.936 645.303 274.096C647.031 270.16 649.335 266.752 652.215 263.872C655.095 260.896 658.407 258.544 662.151 256.816C665.991 255.088 670.071 254.224 674.391 254.224C677.271 254.224 679.911 254.608 682.311 255.376C684.711 256.048 686.775 256.912 688.503 257.968C690.231 259.024 691.623 260.128 692.679 261.28C693.735 262.432 694.455 263.44 694.839 264.304L695.415 255.808H707.223V316H694.839V308.368C694.359 309.136 693.591 310.048 692.535 311.104C691.479 312.16 690.087 313.168 688.359 314.128C686.727 314.992 684.759 315.76 682.455 316.432C680.151 317.104 677.511 317.44 674.535 317.44C669.927 317.44 665.655 316.624 661.719 314.992C657.879 313.264 654.567 311.008 651.783 308.224C648.999 305.344 646.791 302.032 645.159 298.288C643.623 294.544 642.855 290.608 642.855 286.48ZM655.239 285.76C655.239 288.544 655.719 291.136 656.679 293.536C657.735 295.936 659.127 298 660.855 299.728C662.583 301.456 664.647 302.848 667.047 303.904C669.447 304.864 672.087 305.344 674.967 305.344C677.847 305.344 680.487 304.864 682.887 303.904C685.383 302.848 687.495 301.456 689.223 299.728C691.047 297.904 692.439 295.84 693.399 293.536C694.359 291.136 694.839 288.544 694.839 285.76C694.839 282.976 694.359 280.432 693.399 278.128C692.439 275.728 691.047 273.664 689.223 271.936C687.495 270.208 685.383 268.864 682.887 267.904C680.487 266.848 677.847 266.32 674.967 266.32C672.087 266.32 669.447 266.848 667.047 267.904C664.647 268.864 662.583 270.208 660.855 271.936C659.127 273.664 657.735 275.728 656.679 278.128C655.719 280.432 655.239 282.976 655.239 285.76Z" fill="#B51500"/>
<path opacity="0.1" d="M332.061 172.222L332.06 172.222L313.128 159.11L312.958 159.142L305.377 153.951L305.011 153.871L305.406 153.758L224.782 97.9233L146.92 44L107.245 59.8511L104 60.3922L151.546 114.44L331.488 319H544L332.061 172.222Z" fill="#FAFCA3"/>
<path d="M216.258 163.754C231.17 163.754 243.258 151.666 243.258 136.754C243.258 121.842 231.17 109.754 216.258 109.754C201.346 109.754 189.258 121.842 189.258 136.754C189.258 151.666 201.346 163.754 216.258 163.754Z" fill="#F2F2F2"/>
<path d="M161.888 201.665L287.039 83.6765L209.378 16.6342C206.684 14.3374 202.93 13.3687 198.854 13.9187C194.779 14.4687 190.676 16.4976 187.355 19.6062L103.796 98.3821C100.498 101.515 98.2308 105.491 97.4418 109.527C96.6529 113.563 97.3989 117.368 99.5331 120.192L161.888 201.665Z" fill="#F2F2F2"/>
<path d="M578.551 214.756L590.587 226.792C584.608 232.299 578.865 237.648 573.359 242.84C568.009 248.032 562.346 253.46 556.367 259.124C563.447 268.564 570.37 278.083 577.135 287.68C583.9 297.12 590.744 306.56 597.667 316H574.539C569.189 308.605 563.762 301.368 558.255 294.288C552.905 287.051 547.556 279.735 542.207 272.34L528.519 284.848V316H508.459V132.628H528.519V261.248C537.329 253.224 545.747 245.515 553.771 238.12C561.795 230.568 570.055 222.78 578.551 214.756Z" fill="#B51500"/>
<path d="M6.50934 142.167C13.312 135.106 23.6273 133.813 31.7237 138.289L110.24 56.7893C105.872 48.4442 107.077 37.7791 113.879 30.7182C122.186 22.0979 135.73 22.0673 144.076 30.6499L150.845 37.613C164.96 27.0115 184.885 28.2502 197.643 41.3721L230.274 74.9373C232.674 77.4061 232.683 81.4179 230.295 83.898L213.146 101.698L214.192 102.775C218.235 106.933 220.469 112.468 220.482 118.362C220.495 124.255 218.287 129.8 214.263 133.976C210.24 138.153 204.883 140.46 199.18 140.473C193.476 140.485 188.11 138.203 184.068 134.045L183.02 132.967L165.871 150.767C164.676 152.006 163.108 152.629 161.539 152.632C159.97 152.636 158.399 152.021 157.199 150.786L124.567 117.22C111.811 104.098 110.52 83.5148 120.717 68.8819L118.294 66.3899L40.4148 147.23C43.8179 153.73 43.8358 161.636 40.4622 168.153L122.334 252.367L131.818 252.346C145.996 252.314 157.73 263.395 159.293 277.627L190.126 277.558C193.512 277.55 196.264 280.381 196.272 283.879L196.329 309.223C196.337 312.722 193.598 315.565 190.212 315.573L165.685 315.628C162.299 315.636 159.547 312.805 159.539 309.306C159.531 305.808 162.271 302.965 165.656 302.957L184.052 302.915L184.023 290.243L153.364 290.313L79.7832 290.479L49.1245 290.548L49.1532 303.22L128.866 303.04C132.252 303.032 135.004 305.864 135.012 309.362C135.02 312.86 132.28 315.704 128.895 315.711L43.0503 315.906C39.6642 315.913 36.9124 313.082 36.9044 309.584L36.8471 284.24C36.8392 280.741 39.5787 277.898 42.9643 277.89L73.7971 277.821C75.2954 263.582 86.9802 252.447 101.158 252.415L104.99 252.406L31.8116 177.133C28.6663 178.891 25.1813 179.779 21.6927 179.786C16.2251 179.799 10.7521 177.66 6.57991 173.369C-1.76385 164.785 -1.7955 150.788 6.50934 142.167ZM192.72 125.066C194.44 126.835 196.725 127.807 199.152 127.801C201.579 127.796 203.859 126.814 205.572 125.036C205.572 125.036 205.572 125.036 205.572 125.036C207.284 123.258 208.224 120.898 208.219 118.39C208.213 115.882 207.262 113.526 205.542 111.755L204.495 110.678L191.672 123.988L192.72 125.066ZM133.22 108.241L161.506 137.336L178.648 119.543C178.65 119.541 178.652 119.538 178.653 119.537L200.128 97.2462C200.13 97.2445 200.133 97.2422 200.134 97.2405L217.277 79.4471L188.991 50.3518C184.462 45.6921 178.447 43.1336 172.055 43.1481C165.664 43.1625 159.66 45.7476 155.152 50.4283L154.884 50.7062L133.41 72.9965L133.142 73.2744C128.633 77.9539 126.158 84.1688 126.173 90.7737C126.187 97.3775 128.69 103.581 133.22 108.241ZM122.601 52.9402L129.043 59.5659L141.865 46.2564L135.424 39.6307C131.872 35.977 126.106 35.9901 122.571 39.6598C119.037 43.3289 119.05 49.2865 122.601 52.9402ZM101.188 265.087C93.7844 265.104 87.6025 270.569 86.1946 277.793L146.897 277.655C145.456 270.438 139.249 265.001 131.846 265.018L101.188 265.087ZM15.2316 164.388C18.783 168.041 24.5487 168.029 28.0841 164.359C31.619 160.691 31.6061 154.736 28.0574 151.082C28.0563 151.081 28.0552 151.08 28.0541 151.078C28.0536 151.078 28.0525 151.077 28.0519 151.075C26.2759 149.251 23.9483 148.341 21.6222 148.347C19.2944 148.352 16.9693 149.272 15.2021 151.107C11.6656 154.777 11.6791 160.735 15.2316 164.388Z" fill="#F2F2F2"/>
</svg>
