<!-- Generated by IcoMoon.io -->
<svg version="1.1" fill="#b51500" xmlns="http://www.w3.org/2000/svg" width="768" height="768" viewBox="0 0 768 768">
<title></title>
<g id="icomoon-ignore">
</g>
<path d="M704 320c0-88.352-35.84-168.416-93.728-226.272s-137.92-93.728-226.272-93.728-168.416 35.84-226.272 93.728-93.728 137.92-93.728 226.272c0 18.208 1.696 36.096 4.8 53.632 8.768 49.536 28.768 96.128 53.824 138.24 87.424 146.912 243.616 250.752 243.616 250.752 10.592 6.944 24.48 7.328 35.488 0 0 0 156.224-103.84 243.616-250.752 25.056-42.112 45.056-88.704 53.824-138.24 3.136-17.536 4.832-35.424 4.832-53.632zM640 320c0 14.208-1.312 28.384-3.808 42.496-7.072 40-23.584 79.296-45.824 116.672-61.184 102.848-161.152 183.904-203.808 215.68-44.736-29.312-146.816-111.264-208.96-215.68-22.24-37.376-38.752-76.672-45.824-116.672-2.464-14.112-3.776-28.288-3.776-42.496 0-70.688 28.608-134.656 74.976-181.024s110.336-74.976 181.024-74.976 134.656 28.608 181.024 74.976 74.976 110.336 74.976 181.024zM512 320c0-35.328-14.368-67.392-37.504-90.496s-55.168-37.504-90.496-37.504-67.392 14.368-90.496 37.504-37.504 55.168-37.504 90.496 14.368 67.392 37.504 90.496 55.168 37.504 90.496 37.504 67.392-14.368 90.496-37.504 37.504-55.168 37.504-90.496zM448 320c0 17.696-7.136 33.632-18.752 45.248s-27.552 18.752-45.248 18.752-33.632-7.136-45.248-18.752-18.752-27.552-18.752-45.248 7.136-33.632 18.752-45.248 27.552-18.752 45.248-18.752 33.632 7.136 45.248 18.752 18.752 27.552 18.752 45.248z"></path>
</svg>
