<!-- Generated by IcoMoon.io -->
<svg version="1.1" fill="#b51500" xmlns="http://www.w3.org/2000/svg" width="768" height="768" viewBox="0 0 768 768">
<title></title>
<g id="icomoon-ignore">
</g>
<path d="M384 667.584c-37.888-21.504-141.44-86.24-193.6-177.568-2.528-4.416-4.896-8.832-7.136-13.344-14.592-29.152-23.264-60.096-23.264-92.672v-201.824l224-84 224 84v201.824c0 32.576-8.672 63.52-23.232 92.704-2.24 4.48-4.64 8.928-7.136 13.344-52.192 91.328-155.744 156.032-193.6 177.568zM398.304 732.608c0 0 159.648-79.2 234.88-210.848 3.072-5.376 6.016-10.88 8.832-16.48 18.176-36.32 29.984-77.056 29.984-121.28v-224c0-13.632-8.544-25.28-20.768-29.952l-256-96c-7.552-2.848-15.52-2.624-22.464 0l-256 96c-12.768 4.768-20.672 16.864-20.768 29.952v224c0 44.224 11.808 84.96 30.016 121.312 2.784 5.6 5.728 11.072 8.832 16.48 75.232 131.648 234.88 210.848 234.88 210.848 9.344 4.672 19.84 4.352 28.608 0z"></path>
</svg>
